<?xml version="1.0" encoding="UTF-8" standalone="no"?>
<!DOCTYPE svg PUBLIC "-//W3C//DTD SVG 1.1//EN"
 "http://www.w3.org/Graphics/SVG/1.1/DTD/svg11.dtd">
<!-- Generated by graphviz version 12.2.0 (20241103.1931)
 -->
<!-- Title: G Pages: 1 -->
<svg width="80pt" height="1988pt"
 viewBox="0.00 0.00 79.99 1988.00" xmlns="http://www.w3.org/2000/svg" xmlns:xlink="http://www.w3.org/1999/xlink">
<g id="graph0" class="graph" transform="scale(1 1) rotate(0) translate(4 1984)">
<title>G</title>
<polygon fill="white" stroke="none" points="-4,4 -4,-1984 75.99,-1984 75.99,4 -4,4"/>
<!-- (0, 0) -->
<g id="node1" class="node">
<title>(0, 0)</title>
<ellipse fill="none" stroke="red" cx="36" cy="-1962" rx="31.39" ry="18"/>
<text text-anchor="middle" x="36" y="-1956.95" font-family="Times New Roman,serif" font-size="14.00">(0, 0)</text>
</g>
<!-- (1, 0) -->
<g id="node2" class="node">
<title>(1, 0)</title>
<ellipse fill="none" stroke="red" cx="36" cy="-1890" rx="31.39" ry="18"/>
<text text-anchor="middle" x="36" y="-1884.95" font-family="Times New Roman,serif" font-size="14.00">(1, 0)</text>
</g>
<!-- (0, 0)&#45;&#45;(1, 0) -->
<g id="edge1" class="edge">
<title>(0, 0)&#45;&#45;(1, 0)</title>
<path fill="none" stroke="red" d="M36,-1943.7C36,-1932.85 36,-1918.92 36,-1908.1"/>
</g>
<!-- (1, 1) -->
<g id="node3" class="node">
<title>(1, 1)</title>
<ellipse fill="none" stroke="red" cx="36" cy="-1818" rx="31.39" ry="18"/>
<text text-anchor="middle" x="36" y="-1812.95" font-family="Times New Roman,serif" font-size="14.00">(1, 1)</text>
</g>
<!-- (1, 0)&#45;&#45;(1, 1) -->
<g id="edge2" class="edge">
<title>(1, 0)&#45;&#45;(1, 1)</title>
<path fill="none" stroke="red" d="M36,-1871.7C36,-1860.85 36,-1846.92 36,-1836.1"/>
</g>
<!-- (1, 2) -->
<g id="node4" class="node">
<title>(1, 2)</title>
<ellipse fill="none" stroke="red" cx="36" cy="-1746" rx="31.39" ry="18"/>
<text text-anchor="middle" x="36" y="-1740.95" font-family="Times New Roman,serif" font-size="14.00">(1, 2)</text>
</g>
<!-- (1, 1)&#45;&#45;(1, 2) -->
<g id="edge3" class="edge">
<title>(1, 1)&#45;&#45;(1, 2)</title>
<path fill="none" stroke="red" d="M36,-1799.7C36,-1788.85 36,-1774.92 36,-1764.1"/>
</g>
<!-- (1, 3) -->
<g id="node5" class="node">
<title>(1, 3)</title>
<ellipse fill="none" stroke="red" cx="36" cy="-1674" rx="31.39" ry="18"/>
<text text-anchor="middle" x="36" y="-1668.95" font-family="Times New Roman,serif" font-size="14.00">(1, 3)</text>
</g>
<!-- (1, 2)&#45;&#45;(1, 3) -->
<g id="edge4" class="edge">
<title>(1, 2)&#45;&#45;(1, 3)</title>
<path fill="none" stroke="red" d="M36,-1727.7C36,-1716.85 36,-1702.92 36,-1692.1"/>
</g>
<!-- (1, 4) -->
<g id="node6" class="node">
<title>(1, 4)</title>
<ellipse fill="none" stroke="red" cx="36" cy="-1602" rx="31.39" ry="18"/>
<text text-anchor="middle" x="36" y="-1596.95" font-family="Times New Roman,serif" font-size="14.00">(1, 4)</text>
</g>
<!-- (1, 3)&#45;&#45;(1, 4) -->
<g id="edge5" class="edge">
<title>(1, 3)&#45;&#45;(1, 4)</title>
<path fill="none" stroke="red" d="M36,-1655.7C36,-1644.85 36,-1630.92 36,-1620.1"/>
</g>
<!-- (2, 4) -->
<g id="node7" class="node">
<title>(2, 4)</title>
<ellipse fill="none" stroke="red" cx="36" cy="-1530" rx="31.39" ry="18"/>
<text text-anchor="middle" x="36" y="-1524.95" font-family="Times New Roman,serif" font-size="14.00">(2, 4)</text>
</g>
<!-- (1, 4)&#45;&#45;(2, 4) -->
<g id="edge6" class="edge">
<title>(1, 4)&#45;&#45;(2, 4)</title>
<path fill="none" stroke="red" d="M36,-1583.7C36,-1572.85 36,-1558.92 36,-1548.1"/>
</g>
<!-- (3, 4) -->
<g id="node8" class="node">
<title>(3, 4)</title>
<ellipse fill="none" stroke="red" cx="36" cy="-1458" rx="31.39" ry="18"/>
<text text-anchor="middle" x="36" y="-1452.95" font-family="Times New Roman,serif" font-size="14.00">(3, 4)</text>
</g>
<!-- (2, 4)&#45;&#45;(3, 4) -->
<g id="edge7" class="edge">
<title>(2, 4)&#45;&#45;(3, 4)</title>
<path fill="none" stroke="red" d="M36,-1511.7C36,-1500.85 36,-1486.92 36,-1476.1"/>
</g>
<!-- (4, 4) -->
<g id="node9" class="node">
<title>(4, 4)</title>
<ellipse fill="none" stroke="red" cx="36" cy="-1386" rx="31.39" ry="18"/>
<text text-anchor="middle" x="36" y="-1380.95" font-family="Times New Roman,serif" font-size="14.00">(4, 4)</text>
</g>
<!-- (3, 4)&#45;&#45;(4, 4) -->
<g id="edge8" class="edge">
<title>(3, 4)&#45;&#45;(4, 4)</title>
<path fill="none" stroke="red" d="M36,-1439.7C36,-1428.85 36,-1414.92 36,-1404.1"/>
</g>
<!-- (5, 4) -->
<g id="node10" class="node">
<title>(5, 4)</title>
<ellipse fill="none" stroke="red" cx="36" cy="-1314" rx="31.39" ry="18"/>
<text text-anchor="middle" x="36" y="-1308.95" font-family="Times New Roman,serif" font-size="14.00">(5, 4)</text>
</g>
<!-- (4, 4)&#45;&#45;(5, 4) -->
<g id="edge9" class="edge">
<title>(4, 4)&#45;&#45;(5, 4)</title>
<path fill="none" stroke="red" d="M36,-1367.7C36,-1356.85 36,-1342.92 36,-1332.1"/>
</g>
<!-- (6, 4) -->
<g id="node11" class="node">
<title>(6, 4)</title>
<ellipse fill="none" stroke="red" cx="36" cy="-1242" rx="31.39" ry="18"/>
<text text-anchor="middle" x="36" y="-1236.95" font-family="Times New Roman,serif" font-size="14.00">(6, 4)</text>
</g>
<!-- (5, 4)&#45;&#45;(6, 4) -->
<g id="edge10" class="edge">
<title>(5, 4)&#45;&#45;(6, 4)</title>
<path fill="none" stroke="red" d="M36,-1295.7C36,-1284.85 36,-1270.92 36,-1260.1"/>
</g>
<!-- (7, 4) -->
<g id="node12" class="node">
<title>(7, 4)</title>
<ellipse fill="none" stroke="red" cx="36" cy="-1170" rx="31.39" ry="18"/>
<text text-anchor="middle" x="36" y="-1164.95" font-family="Times New Roman,serif" font-size="14.00">(7, 4)</text>
</g>
<!-- (6, 4)&#45;&#45;(7, 4) -->
<g id="edge11" class="edge">
<title>(6, 4)&#45;&#45;(7, 4)</title>
<path fill="none" stroke="red" d="M36,-1223.7C36,-1212.85 36,-1198.92 36,-1188.1"/>
</g>
<!-- (8, 4) -->
<g id="node13" class="node">
<title>(8, 4)</title>
<ellipse fill="none" stroke="red" cx="36" cy="-1098" rx="31.39" ry="18"/>
<text text-anchor="middle" x="36" y="-1092.95" font-family="Times New Roman,serif" font-size="14.00">(8, 4)</text>
</g>
<!-- (7, 4)&#45;&#45;(8, 4) -->
<g id="edge12" class="edge">
<title>(7, 4)&#45;&#45;(8, 4)</title>
<path fill="none" stroke="red" d="M36,-1151.7C36,-1140.85 36,-1126.92 36,-1116.1"/>
</g>
<!-- (9, 4) -->
<g id="node14" class="node">
<title>(9, 4)</title>
<ellipse fill="none" stroke="red" cx="36" cy="-1026" rx="31.39" ry="18"/>
<text text-anchor="middle" x="36" y="-1020.95" font-family="Times New Roman,serif" font-size="14.00">(9, 4)</text>
</g>
<!-- (8, 4)&#45;&#45;(9, 4) -->
<g id="edge13" class="edge">
<title>(8, 4)&#45;&#45;(9, 4)</title>
<path fill="none" stroke="red" d="M36,-1079.7C36,-1068.85 36,-1054.92 36,-1044.1"/>
</g>
<!-- (10, 4) -->
<g id="node15" class="node">
<title>(10, 4)</title>
<ellipse fill="none" stroke="red" cx="36" cy="-954" rx="36" ry="18"/>
<text text-anchor="middle" x="36" y="-948.95" font-family="Times New Roman,serif" font-size="14.00">(10, 4)</text>
</g>
<!-- (9, 4)&#45;&#45;(10, 4) -->
<g id="edge14" class="edge">
<title>(9, 4)&#45;&#45;(10, 4)</title>
<path fill="none" stroke="red" d="M36,-1007.7C36,-996.85 36,-982.92 36,-972.1"/>
</g>
<!-- (11, 4) -->
<g id="node16" class="node">
<title>(11, 4)</title>
<ellipse fill="none" stroke="red" cx="36" cy="-882" rx="36" ry="18"/>
<text text-anchor="middle" x="36" y="-876.95" font-family="Times New Roman,serif" font-size="14.00">(11, 4)</text>
</g>
<!-- (10, 4)&#45;&#45;(11, 4) -->
<g id="edge15" class="edge">
<title>(10, 4)&#45;&#45;(11, 4)</title>
<path fill="none" stroke="red" d="M36,-935.7C36,-924.85 36,-910.92 36,-900.1"/>
</g>
<!-- (11, 5) -->
<g id="node17" class="node">
<title>(11, 5)</title>
<ellipse fill="none" stroke="red" cx="36" cy="-810" rx="36" ry="18"/>
<text text-anchor="middle" x="36" y="-804.95" font-family="Times New Roman,serif" font-size="14.00">(11, 5)</text>
</g>
<!-- (11, 4)&#45;&#45;(11, 5) -->
<g id="edge16" class="edge">
<title>(11, 4)&#45;&#45;(11, 5)</title>
<path fill="none" stroke="red" d="M36,-863.7C36,-852.85 36,-838.92 36,-828.1"/>
</g>
<!-- (11, 6) -->
<g id="node18" class="node">
<title>(11, 6)</title>
<ellipse fill="none" stroke="red" cx="36" cy="-738" rx="36" ry="18"/>
<text text-anchor="middle" x="36" y="-732.95" font-family="Times New Roman,serif" font-size="14.00">(11, 6)</text>
</g>
<!-- (11, 5)&#45;&#45;(11, 6) -->
<g id="edge17" class="edge">
<title>(11, 5)&#45;&#45;(11, 6)</title>
<path fill="none" stroke="red" d="M36,-791.7C36,-780.85 36,-766.92 36,-756.1"/>
</g>
<!-- (12, 6) -->
<g id="node19" class="node">
<title>(12, 6)</title>
<ellipse fill="none" stroke="red" cx="36" cy="-666" rx="36" ry="18"/>
<text text-anchor="middle" x="36" y="-660.95" font-family="Times New Roman,serif" font-size="14.00">(12, 6)</text>
</g>
<!-- (11, 6)&#45;&#45;(12, 6) -->
<g id="edge18" class="edge">
<title>(11, 6)&#45;&#45;(12, 6)</title>
<path fill="none" stroke="red" d="M36,-719.7C36,-708.85 36,-694.92 36,-684.1"/>
</g>
<!-- (13, 6) -->
<g id="node20" class="node">
<title>(13, 6)</title>
<ellipse fill="none" stroke="red" cx="36" cy="-594" rx="36" ry="18"/>
<text text-anchor="middle" x="36" y="-588.95" font-family="Times New Roman,serif" font-size="14.00">(13, 6)</text>
</g>
<!-- (12, 6)&#45;&#45;(13, 6) -->
<g id="edge19" class="edge">
<title>(12, 6)&#45;&#45;(13, 6)</title>
<path fill="none" stroke="red" d="M36,-647.7C36,-636.85 36,-622.92 36,-612.1"/>
</g>
<!-- (13, 5) -->
<g id="node21" class="node">
<title>(13, 5)</title>
<ellipse fill="none" stroke="red" cx="36" cy="-522" rx="36" ry="18"/>
<text text-anchor="middle" x="36" y="-516.95" font-family="Times New Roman,serif" font-size="14.00">(13, 5)</text>
</g>
<!-- (13, 6)&#45;&#45;(13, 5) -->
<g id="edge20" class="edge">
<title>(13, 6)&#45;&#45;(13, 5)</title>
<path fill="none" stroke="red" d="M36,-575.7C36,-564.85 36,-550.92 36,-540.1"/>
</g>
<!-- (13, 4) -->
<g id="node22" class="node">
<title>(13, 4)</title>
<ellipse fill="none" stroke="red" cx="36" cy="-450" rx="36" ry="18"/>
<text text-anchor="middle" x="36" y="-444.95" font-family="Times New Roman,serif" font-size="14.00">(13, 4)</text>
</g>
<!-- (13, 5)&#45;&#45;(13, 4) -->
<g id="edge21" class="edge">
<title>(13, 5)&#45;&#45;(13, 4)</title>
<path fill="none" stroke="red" d="M36,-503.7C36,-492.85 36,-478.92 36,-468.1"/>
</g>
<!-- (13, 3) -->
<g id="node23" class="node">
<title>(13, 3)</title>
<ellipse fill="none" stroke="red" cx="36" cy="-378" rx="36" ry="18"/>
<text text-anchor="middle" x="36" y="-372.95" font-family="Times New Roman,serif" font-size="14.00">(13, 3)</text>
</g>
<!-- (13, 4)&#45;&#45;(13, 3) -->
<g id="edge22" class="edge">
<title>(13, 4)&#45;&#45;(13, 3)</title>
<path fill="none" stroke="red" d="M36,-431.7C36,-420.85 36,-406.92 36,-396.1"/>
</g>
<!-- (13, 2) -->
<g id="node24" class="node">
<title>(13, 2)</title>
<ellipse fill="none" stroke="red" cx="36" cy="-306" rx="36" ry="18"/>
<text text-anchor="middle" x="36" y="-300.95" font-family="Times New Roman,serif" font-size="14.00">(13, 2)</text>
</g>
<!-- (13, 3)&#45;&#45;(13, 2) -->
<g id="edge23" class="edge">
<title>(13, 3)&#45;&#45;(13, 2)</title>
<path fill="none" stroke="red" d="M36,-359.7C36,-348.85 36,-334.92 36,-324.1"/>
</g>
<!-- (13, 1) -->
<g id="node25" class="node">
<title>(13, 1)</title>
<ellipse fill="none" stroke="red" cx="36" cy="-234" rx="36" ry="18"/>
<text text-anchor="middle" x="36" y="-228.95" font-family="Times New Roman,serif" font-size="14.00">(13, 1)</text>
</g>
<!-- (13, 2)&#45;&#45;(13, 1) -->
<g id="edge24" class="edge">
<title>(13, 2)&#45;&#45;(13, 1)</title>
<path fill="none" stroke="red" d="M36,-287.7C36,-276.85 36,-262.92 36,-252.1"/>
</g>
<!-- (12, 1) -->
<g id="node26" class="node">
<title>(12, 1)</title>
<ellipse fill="none" stroke="red" cx="36" cy="-162" rx="36" ry="18"/>
<text text-anchor="middle" x="36" y="-156.95" font-family="Times New Roman,serif" font-size="14.00">(12, 1)</text>
</g>
<!-- (13, 1)&#45;&#45;(12, 1) -->
<g id="edge25" class="edge">
<title>(13, 1)&#45;&#45;(12, 1)</title>
<path fill="none" stroke="red" d="M36,-215.7C36,-204.85 36,-190.92 36,-180.1"/>
</g>
<!-- (11, 1) -->
<g id="node27" class="node">
<title>(11, 1)</title>
<ellipse fill="none" stroke="red" cx="36" cy="-90" rx="36" ry="18"/>
<text text-anchor="middle" x="36" y="-84.95" font-family="Times New Roman,serif" font-size="14.00">(11, 1)</text>
</g>
<!-- (12, 1)&#45;&#45;(11, 1) -->
<g id="edge26" class="edge">
<title>(12, 1)&#45;&#45;(11, 1)</title>
<path fill="none" stroke="red" d="M36,-143.7C36,-132.85 36,-118.92 36,-108.1"/>
</g>
<!-- (11, 2) -->
<g id="node28" class="node">
<title>(11, 2)</title>
<ellipse fill="none" stroke="red" cx="36" cy="-18" rx="36" ry="18"/>
<text text-anchor="middle" x="36" y="-12.95" font-family="Times New Roman,serif" font-size="14.00">(11, 2)</text>
</g>
<!-- (11, 1)&#45;&#45;(11, 2) -->
<g id="edge27" class="edge">
<title>(11, 1)&#45;&#45;(11, 2)</title>
<path fill="none" stroke="red" d="M36,-71.7C36,-60.85 36,-46.92 36,-36.1"/>
</g>
</g>
</svg>
