<?xml version="1.0" encoding="UTF-8" standalone="no"?>
<!DOCTYPE svg PUBLIC "-//W3C//DTD SVG 1.1//EN"
 "http://www.w3.org/Graphics/SVG/1.1/DTD/svg11.dtd">
<!-- Generated by graphviz version 2.50.0 (0)
 -->
<!-- Title: G Pages: 1 -->
<svg width="135pt" height="1080pt"
 viewBox="0.00 0.00 135.29 1080.00" xmlns="http://www.w3.org/2000/svg" xmlns:xlink="http://www.w3.org/1999/xlink">
<g id="graph0" class="graph" transform="scale(0.44 0.44) rotate(0) translate(4 2439.49)">
<title>G</title>
<polygon fill="white" stroke="transparent" points="-4,4 -4,-2439.49 302.09,-2439.49 302.09,4 -4,4"/>
<!-- (1, 0) -->
<g id="node1" class="node">
<title>(1, 0)</title>
<ellipse fill="none" stroke="black" cx="69.55" cy="-2345.49" rx="30.59" ry="18"/>
<text text-anchor="middle" x="69.55" y="-2341.79" font-family="Times New Roman,serif" font-size="14.00">(1, 0)</text>
</g>
<!-- (0, 0) -->
<g id="node3" class="node">
<title>(0, 0)</title>
<ellipse fill="none" stroke="black" cx="30.55" cy="-2273.49" rx="30.59" ry="18"/>
<text text-anchor="middle" x="30.55" y="-2269.79" font-family="Times New Roman,serif" font-size="14.00">(0, 0)</text>
</g>
<!-- (1, 0)&#45;&gt;(0, 0) -->
<g id="edge2" class="edge">
<title>(1, 0)&#45;&gt;(0, 0)</title>
<path fill="none" stroke="black" d="M60.5,-2328.25C55.84,-2319.89 50.06,-2309.5 44.81,-2300.09"/>
<polygon fill="black" stroke="black" points="47.74,-2298.15 39.81,-2291.12 41.62,-2301.56 47.74,-2298.15"/>
</g>
<!-- (2, 1) -->
<g id="node5" class="node">
<title>(2, 1)</title>
<ellipse fill="none" stroke="black" cx="109.55" cy="-2273.49" rx="30.59" ry="18"/>
<text text-anchor="middle" x="109.55" y="-2269.79" font-family="Times New Roman,serif" font-size="14.00">(2, 1)</text>
</g>
<!-- (1, 0)&#45;&gt;(2, 1) -->
<g id="edge4" class="edge">
<title>(1, 0)&#45;&gt;(2, 1)</title>
<path fill="none" stroke="black" d="M78.82,-2328.25C83.6,-2319.89 89.54,-2309.5 94.92,-2300.09"/>
<polygon fill="black" stroke="black" points="98.12,-2301.54 100.04,-2291.12 92.04,-2298.07 98.12,-2301.54"/>
</g>
<!-- (1, 1) -->
<g id="node2" class="node">
<title>(1, 1)</title>
<ellipse fill="none" stroke="black" cx="69.55" cy="-2417.49" rx="30.59" ry="18"/>
<text text-anchor="middle" x="69.55" y="-2413.79" font-family="Times New Roman,serif" font-size="14.00">(1, 1)</text>
</g>
<!-- (1, 1)&#45;&gt;(1, 0) -->
<g id="edge1" class="edge">
<title>(1, 1)&#45;&gt;(1, 0)</title>
<path fill="none" stroke="black" d="M69.55,-2399.19C69.55,-2391.47 69.55,-2382.2 69.55,-2373.6"/>
<polygon fill="black" stroke="black" points="73.05,-2373.59 69.55,-2363.59 66.05,-2373.59 73.05,-2373.59"/>
</g>
<!-- (0, 1) -->
<g id="node4" class="node">
<title>(0, 1)</title>
<ellipse fill="none" stroke="black" cx="30.55" cy="-2201.49" rx="30.59" ry="18"/>
<text text-anchor="middle" x="30.55" y="-2197.79" font-family="Times New Roman,serif" font-size="14.00">(0, 1)</text>
</g>
<!-- (0, 0)&#45;&gt;(0, 1) -->
<g id="edge3" class="edge">
<title>(0, 0)&#45;&gt;(0, 1)</title>
<path fill="none" stroke="black" d="M30.55,-2255.19C30.55,-2247.47 30.55,-2238.2 30.55,-2229.6"/>
<polygon fill="black" stroke="black" points="34.05,-2229.59 30.55,-2219.59 27.05,-2229.59 34.05,-2229.59"/>
</g>
<!-- (3, 1) -->
<g id="node6" class="node">
<title>(3, 1)</title>
<ellipse fill="none" stroke="black" cx="109.55" cy="-2201.49" rx="30.59" ry="18"/>
<text text-anchor="middle" x="109.55" y="-2197.79" font-family="Times New Roman,serif" font-size="14.00">(3, 1)</text>
</g>
<!-- (2, 1)&#45;&gt;(3, 1) -->
<g id="edge5" class="edge">
<title>(2, 1)&#45;&gt;(3, 1)</title>
<path fill="none" stroke="black" d="M109.55,-2255.19C109.55,-2247.47 109.55,-2238.2 109.55,-2229.6"/>
<polygon fill="black" stroke="black" points="113.05,-2229.59 109.55,-2219.59 106.05,-2229.59 113.05,-2229.59"/>
</g>
<!-- (1, 2) -->
<g id="node20" class="node">
<title>(1, 2)</title>
<ellipse fill="none" stroke="black" cx="188.55" cy="-2201.49" rx="30.59" ry="18"/>
<text text-anchor="middle" x="188.55" y="-2197.79" font-family="Times New Roman,serif" font-size="14.00">(1, 2)</text>
</g>
<!-- (2, 1)&#45;&gt;(1, 2) -->
<g id="edge19" class="edge">
<title>(2, 1)&#45;&gt;(1, 2)</title>
<path fill="none" stroke="black" d="M125.92,-2257.98C137.04,-2248.13 151.94,-2234.93 164.41,-2223.87"/>
<polygon fill="black" stroke="black" points="167.04,-2226.23 172.2,-2216.97 162.39,-2220.99 167.04,-2226.23"/>
</g>
<!-- (4, 1) -->
<g id="node7" class="node">
<title>(4, 1)</title>
<ellipse fill="none" stroke="black" cx="109.55" cy="-2129.49" rx="30.59" ry="18"/>
<text text-anchor="middle" x="109.55" y="-2125.79" font-family="Times New Roman,serif" font-size="14.00">(4, 1)</text>
</g>
<!-- (3, 1)&#45;&gt;(4, 1) -->
<g id="edge6" class="edge">
<title>(3, 1)&#45;&gt;(4, 1)</title>
<path fill="none" stroke="black" d="M109.55,-2183.19C109.55,-2175.47 109.55,-2166.2 109.55,-2157.6"/>
<polygon fill="black" stroke="black" points="113.05,-2157.59 109.55,-2147.59 106.05,-2157.59 113.05,-2157.59"/>
</g>
<!-- (4, 2) -->
<g id="node8" class="node">
<title>(4, 2)</title>
<ellipse fill="none" stroke="black" cx="109.55" cy="-2057.49" rx="30.59" ry="18"/>
<text text-anchor="middle" x="109.55" y="-2053.79" font-family="Times New Roman,serif" font-size="14.00">(4, 2)</text>
</g>
<!-- (4, 1)&#45;&gt;(4, 2) -->
<g id="edge7" class="edge">
<title>(4, 1)&#45;&gt;(4, 2)</title>
<path fill="none" stroke="black" d="M109.55,-2111.19C109.55,-2103.47 109.55,-2094.2 109.55,-2085.6"/>
<polygon fill="black" stroke="black" points="113.05,-2085.59 109.55,-2075.59 106.05,-2085.59 113.05,-2085.59"/>
</g>
<!-- (4, 3) -->
<g id="node9" class="node">
<title>(4, 3)</title>
<ellipse fill="none" stroke="black" cx="109.55" cy="-1985.49" rx="30.59" ry="18"/>
<text text-anchor="middle" x="109.55" y="-1981.79" font-family="Times New Roman,serif" font-size="14.00">(4, 3)</text>
</g>
<!-- (4, 2)&#45;&gt;(4, 3) -->
<g id="edge8" class="edge">
<title>(4, 2)&#45;&gt;(4, 3)</title>
<path fill="none" stroke="black" d="M109.55,-2039.19C109.55,-2031.47 109.55,-2022.2 109.55,-2013.6"/>
<polygon fill="black" stroke="black" points="113.05,-2013.59 109.55,-2003.59 106.05,-2013.59 113.05,-2013.59"/>
</g>
<!-- (4, 4) -->
<g id="node10" class="node">
<title>(4, 4)</title>
<ellipse fill="none" stroke="black" cx="109.55" cy="-1913.49" rx="30.59" ry="18"/>
<text text-anchor="middle" x="109.55" y="-1909.79" font-family="Times New Roman,serif" font-size="14.00">(4, 4)</text>
</g>
<!-- (4, 3)&#45;&gt;(4, 4) -->
<g id="edge9" class="edge">
<title>(4, 3)&#45;&gt;(4, 4)</title>
<path fill="none" stroke="black" d="M109.55,-1967.19C109.55,-1959.47 109.55,-1950.2 109.55,-1941.6"/>
<polygon fill="black" stroke="black" points="113.05,-1941.59 109.55,-1931.59 106.05,-1941.59 113.05,-1941.59"/>
</g>
<!-- (5, 4) -->
<g id="node11" class="node">
<title>(5, 4)</title>
<ellipse fill="none" stroke="black" cx="109.55" cy="-1841.49" rx="30.59" ry="18"/>
<text text-anchor="middle" x="109.55" y="-1837.79" font-family="Times New Roman,serif" font-size="14.00">(5, 4)</text>
</g>
<!-- (4, 4)&#45;&gt;(5, 4) -->
<g id="edge10" class="edge">
<title>(4, 4)&#45;&gt;(5, 4)</title>
<path fill="none" stroke="black" d="M109.55,-1895.19C109.55,-1887.47 109.55,-1878.2 109.55,-1869.6"/>
<polygon fill="black" stroke="black" points="113.05,-1869.59 109.55,-1859.59 106.05,-1869.59 113.05,-1869.59"/>
</g>
<!-- (4, 5) -->
<g id="node12" class="node">
<title>(4, 5)</title>
<ellipse fill="none" stroke="black" cx="109.55" cy="-1769.49" rx="30.59" ry="18"/>
<text text-anchor="middle" x="109.55" y="-1765.79" font-family="Times New Roman,serif" font-size="14.00">(4, 5)</text>
</g>
<!-- (5, 4)&#45;&gt;(4, 5) -->
<g id="edge11" class="edge">
<title>(5, 4)&#45;&gt;(4, 5)</title>
<path fill="none" stroke="black" d="M103.67,-1823.54C102.84,-1815.72 102.6,-1806.24 102.96,-1797.47"/>
<polygon fill="black" stroke="black" points="106.46,-1797.5 103.69,-1787.28 99.48,-1797 106.46,-1797.5"/>
</g>
<!-- (5, 4)&#45;&gt;(4, 5) -->
<g id="edge20" class="edge">
<title>(5, 4)&#45;&gt;(4, 5)</title>
<path fill="none" stroke="black" d="M115.43,-1823.54C116.26,-1815.72 116.49,-1806.24 116.14,-1797.47"/>
<polygon fill="black" stroke="black" points="119.61,-1797 115.41,-1787.28 112.63,-1797.5 119.61,-1797"/>
</g>
<!-- (6, 4) -->
<g id="node13" class="node">
<title>(6, 4)</title>
<ellipse fill="none" stroke="black" cx="188.55" cy="-1769.49" rx="30.59" ry="18"/>
<text text-anchor="middle" x="188.55" y="-1765.79" font-family="Times New Roman,serif" font-size="14.00">(6, 4)</text>
</g>
<!-- (5, 4)&#45;&gt;(6, 4) -->
<g id="edge12" class="edge">
<title>(5, 4)&#45;&gt;(6, 4)</title>
<path fill="none" stroke="black" d="M125.92,-1825.98C137.04,-1816.13 151.94,-1802.93 164.41,-1791.87"/>
<polygon fill="black" stroke="black" points="167.04,-1794.23 172.2,-1784.97 162.39,-1788.99 167.04,-1794.23"/>
</g>
<!-- (6, 3) -->
<g id="node14" class="node">
<title>(6, 3)</title>
<ellipse fill="none" stroke="black" cx="188.55" cy="-1697.49" rx="30.59" ry="18"/>
<text text-anchor="middle" x="188.55" y="-1693.79" font-family="Times New Roman,serif" font-size="14.00">(6, 3)</text>
</g>
<!-- (6, 4)&#45;&gt;(6, 3) -->
<g id="edge13" class="edge">
<title>(6, 4)&#45;&gt;(6, 3)</title>
<path fill="none" stroke="black" d="M188.55,-1751.19C188.55,-1743.47 188.55,-1734.2 188.55,-1725.6"/>
<polygon fill="black" stroke="black" points="192.05,-1725.59 188.55,-1715.59 185.05,-1725.59 192.05,-1725.59"/>
</g>
<!-- (6, 5) -->
<g id="node15" class="node">
<title>(6, 5)</title>
<ellipse fill="none" stroke="black" cx="188.55" cy="-1625.49" rx="30.59" ry="18"/>
<text text-anchor="middle" x="188.55" y="-1621.79" font-family="Times New Roman,serif" font-size="14.00">(6, 5)</text>
</g>
<!-- (6, 3)&#45;&gt;(6, 5) -->
<g id="edge14" class="edge">
<title>(6, 3)&#45;&gt;(6, 5)</title>
<path fill="none" stroke="black" d="M182.67,-1679.54C181.84,-1671.72 181.6,-1662.24 181.96,-1653.47"/>
<polygon fill="black" stroke="black" points="185.46,-1653.5 182.69,-1643.28 178.48,-1653 185.46,-1653.5"/>
</g>
<!-- (6, 3)&#45;&gt;(6, 5) -->
<g id="edge21" class="edge">
<title>(6, 3)&#45;&gt;(6, 5)</title>
<path fill="none" stroke="black" d="M194.43,-1679.54C195.26,-1671.72 195.49,-1662.24 195.14,-1653.47"/>
<polygon fill="black" stroke="black" points="198.61,-1653 194.41,-1643.28 191.63,-1653.5 198.61,-1653"/>
</g>
<!-- (6, 2) -->
<g id="node16" class="node">
<title>(6, 2)</title>
<ellipse fill="none" stroke="black" cx="267.55" cy="-1625.49" rx="30.59" ry="18"/>
<text text-anchor="middle" x="267.55" y="-1621.79" font-family="Times New Roman,serif" font-size="14.00">(6, 2)</text>
</g>
<!-- (6, 3)&#45;&gt;(6, 2) -->
<g id="edge15" class="edge">
<title>(6, 3)&#45;&gt;(6, 2)</title>
<path fill="none" stroke="black" d="M204.92,-1681.98C216.04,-1672.13 230.94,-1658.93 243.41,-1647.87"/>
<polygon fill="black" stroke="black" points="246.04,-1650.23 251.2,-1640.97 241.39,-1644.99 246.04,-1650.23"/>
</g>
<!-- (7, 5) -->
<g id="node21" class="node">
<title>(7, 5)</title>
<ellipse fill="none" stroke="black" cx="188.55" cy="-1553.49" rx="30.59" ry="18"/>
<text text-anchor="middle" x="188.55" y="-1549.79" font-family="Times New Roman,serif" font-size="14.00">(7, 5)</text>
</g>
<!-- (6, 5)&#45;&gt;(7, 5) -->
<g id="edge22" class="edge">
<title>(6, 5)&#45;&gt;(7, 5)</title>
<path fill="none" stroke="black" d="M188.55,-1607.19C188.55,-1599.47 188.55,-1590.2 188.55,-1581.6"/>
<polygon fill="black" stroke="black" points="192.05,-1581.59 188.55,-1571.59 185.05,-1581.59 192.05,-1581.59"/>
</g>
<!-- (6, 1) -->
<g id="node17" class="node">
<title>(6, 1)</title>
<ellipse fill="none" stroke="black" cx="267.55" cy="-1553.49" rx="30.59" ry="18"/>
<text text-anchor="middle" x="267.55" y="-1549.79" font-family="Times New Roman,serif" font-size="14.00">(6, 1)</text>
</g>
<!-- (6, 2)&#45;&gt;(6, 1) -->
<g id="edge16" class="edge">
<title>(6, 2)&#45;&gt;(6, 1)</title>
<path fill="none" stroke="black" d="M267.55,-1607.19C267.55,-1599.47 267.55,-1590.2 267.55,-1581.6"/>
<polygon fill="black" stroke="black" points="271.05,-1581.59 267.55,-1571.59 264.05,-1581.59 271.05,-1581.59"/>
</g>
<!-- (7, 1) -->
<g id="node18" class="node">
<title>(7, 1)</title>
<ellipse fill="none" stroke="black" cx="267.55" cy="-1481.49" rx="30.59" ry="18"/>
<text text-anchor="middle" x="267.55" y="-1477.79" font-family="Times New Roman,serif" font-size="14.00">(7, 1)</text>
</g>
<!-- (6, 1)&#45;&gt;(7, 1) -->
<g id="edge17" class="edge">
<title>(6, 1)&#45;&gt;(7, 1)</title>
<path fill="none" stroke="black" d="M267.55,-1535.19C267.55,-1527.47 267.55,-1518.2 267.55,-1509.6"/>
<polygon fill="black" stroke="black" points="271.05,-1509.59 267.55,-1499.59 264.05,-1509.59 271.05,-1509.59"/>
</g>
<!-- (8, 1) -->
<g id="node19" class="node">
<title>(8, 1)</title>
<ellipse fill="none" stroke="black" cx="267.55" cy="-1409.49" rx="30.59" ry="18"/>
<text text-anchor="middle" x="267.55" y="-1405.79" font-family="Times New Roman,serif" font-size="14.00">(8, 1)</text>
</g>
<!-- (7, 1)&#45;&gt;(8, 1) -->
<g id="edge18" class="edge">
<title>(7, 1)&#45;&gt;(8, 1)</title>
<path fill="none" stroke="black" d="M267.55,-1463.19C267.55,-1455.47 267.55,-1446.2 267.55,-1437.6"/>
<polygon fill="black" stroke="black" points="271.05,-1437.59 267.55,-1427.59 264.05,-1437.59 271.05,-1437.59"/>
</g>
<!-- (6, 6) -->
<g id="node22" class="node">
<title>(6, 6)</title>
<ellipse fill="none" stroke="black" cx="109.55" cy="-1481.49" rx="30.59" ry="18"/>
<text text-anchor="middle" x="109.55" y="-1477.79" font-family="Times New Roman,serif" font-size="14.00">(6, 6)</text>
</g>
<!-- (7, 5)&#45;&gt;(6, 6) -->
<g id="edge23" class="edge">
<title>(7, 5)&#45;&gt;(6, 6)</title>
<path fill="none" stroke="black" d="M172.18,-1537.98C161.06,-1528.13 146.16,-1514.93 133.68,-1503.87"/>
<polygon fill="black" stroke="black" points="135.7,-1500.99 125.9,-1496.97 131.06,-1506.23 135.7,-1500.99"/>
</g>
<!-- (8, 5) -->
<g id="node23" class="node">
<title>(8, 5)</title>
<ellipse fill="none" stroke="black" cx="188.55" cy="-1481.49" rx="30.59" ry="18"/>
<text text-anchor="middle" x="188.55" y="-1477.79" font-family="Times New Roman,serif" font-size="14.00">(8, 5)</text>
</g>
<!-- (7, 5)&#45;&gt;(8, 5) -->
<g id="edge24" class="edge">
<title>(7, 5)&#45;&gt;(8, 5)</title>
<path fill="none" stroke="black" d="M188.55,-1535.19C188.55,-1527.47 188.55,-1518.2 188.55,-1509.6"/>
<polygon fill="black" stroke="black" points="192.05,-1509.59 188.55,-1499.59 185.05,-1509.59 192.05,-1509.59"/>
</g>
<!-- (8, 4) -->
<g id="node24" class="node">
<title>(8, 4)</title>
<ellipse fill="none" stroke="black" cx="188.55" cy="-1409.49" rx="30.59" ry="18"/>
<text text-anchor="middle" x="188.55" y="-1405.79" font-family="Times New Roman,serif" font-size="14.00">(8, 4)</text>
</g>
<!-- (8, 5)&#45;&gt;(8, 4) -->
<g id="edge25" class="edge">
<title>(8, 5)&#45;&gt;(8, 4)</title>
<path fill="none" stroke="black" d="M188.55,-1463.19C188.55,-1455.47 188.55,-1446.2 188.55,-1437.6"/>
<polygon fill="black" stroke="black" points="192.05,-1437.59 188.55,-1427.59 185.05,-1437.59 192.05,-1437.59"/>
</g>
<!-- (9, 5) -->
<g id="node25" class="node">
<title>(9, 5)</title>
<ellipse fill="none" stroke="black" cx="149.55" cy="-1337.49" rx="30.59" ry="18"/>
<text text-anchor="middle" x="149.55" y="-1333.79" font-family="Times New Roman,serif" font-size="14.00">(9, 5)</text>
</g>
<!-- (8, 4)&#45;&gt;(9, 5) -->
<g id="edge26" class="edge">
<title>(8, 4)&#45;&gt;(9, 5)</title>
<path fill="none" stroke="black" d="M179.5,-1392.25C174.84,-1383.89 169.06,-1373.5 163.81,-1364.09"/>
<polygon fill="black" stroke="black" points="166.74,-1362.15 158.81,-1355.12 160.62,-1365.56 166.74,-1362.15"/>
</g>
<!-- (8, 3) -->
<g id="node26" class="node">
<title>(8, 3)</title>
<ellipse fill="none" stroke="black" cx="228.55" cy="-1337.49" rx="30.59" ry="18"/>
<text text-anchor="middle" x="228.55" y="-1333.79" font-family="Times New Roman,serif" font-size="14.00">(8, 3)</text>
</g>
<!-- (8, 4)&#45;&gt;(8, 3) -->
<g id="edge27" class="edge">
<title>(8, 4)&#45;&gt;(8, 3)</title>
<path fill="none" stroke="black" d="M197.82,-1392.25C202.6,-1383.89 208.54,-1373.5 213.92,-1364.09"/>
<polygon fill="black" stroke="black" points="217.12,-1365.54 219.04,-1355.12 211.04,-1362.07 217.12,-1365.54"/>
</g>
<!-- (9, 3) -->
<g id="node27" class="node">
<title>(9, 3)</title>
<ellipse fill="none" stroke="black" cx="228.55" cy="-1265.49" rx="30.59" ry="18"/>
<text text-anchor="middle" x="228.55" y="-1261.79" font-family="Times New Roman,serif" font-size="14.00">(9, 3)</text>
</g>
<!-- (8, 3)&#45;&gt;(9, 3) -->
<g id="edge28" class="edge">
<title>(8, 3)&#45;&gt;(9, 3)</title>
<path fill="none" stroke="black" d="M228.55,-1319.19C228.55,-1311.47 228.55,-1302.2 228.55,-1293.6"/>
<polygon fill="black" stroke="black" points="232.05,-1293.59 228.55,-1283.59 225.05,-1293.59 232.05,-1293.59"/>
</g>
<!-- (10, 3) -->
<g id="node28" class="node">
<title>(10, 3)</title>
<ellipse fill="none" stroke="black" cx="228.55" cy="-1193.49" rx="34.39" ry="18"/>
<text text-anchor="middle" x="228.55" y="-1189.79" font-family="Times New Roman,serif" font-size="14.00">(10, 3)</text>
</g>
<!-- (9, 3)&#45;&gt;(10, 3) -->
<g id="edge29" class="edge">
<title>(9, 3)&#45;&gt;(10, 3)</title>
<path fill="none" stroke="black" d="M228.55,-1247.19C228.55,-1239.47 228.55,-1230.2 228.55,-1221.6"/>
<polygon fill="black" stroke="black" points="232.05,-1221.59 228.55,-1211.59 225.05,-1221.59 232.05,-1221.59"/>
</g>
<!-- (10, 2) -->
<g id="node29" class="node">
<title>(10, 2)</title>
<ellipse fill="none" stroke="black" cx="228.55" cy="-1121.49" rx="34.39" ry="18"/>
<text text-anchor="middle" x="228.55" y="-1117.79" font-family="Times New Roman,serif" font-size="14.00">(10, 2)</text>
</g>
<!-- (10, 3)&#45;&gt;(10, 2) -->
<g id="edge30" class="edge">
<title>(10, 3)&#45;&gt;(10, 2)</title>
<path fill="none" stroke="black" d="M228.55,-1175.19C228.55,-1167.47 228.55,-1158.2 228.55,-1149.6"/>
<polygon fill="black" stroke="black" points="232.05,-1149.59 228.55,-1139.59 225.05,-1149.59 232.05,-1149.59"/>
</g>
<!-- (10, 1) -->
<g id="node30" class="node">
<title>(10, 1)</title>
<ellipse fill="none" stroke="black" cx="228.55" cy="-1049.49" rx="34.39" ry="18"/>
<text text-anchor="middle" x="228.55" y="-1045.79" font-family="Times New Roman,serif" font-size="14.00">(10, 1)</text>
</g>
<!-- (10, 2)&#45;&gt;(10, 1) -->
<g id="edge31" class="edge">
<title>(10, 2)&#45;&gt;(10, 1)</title>
<path fill="none" stroke="black" d="M228.55,-1103.19C228.55,-1095.47 228.55,-1086.2 228.55,-1077.6"/>
<polygon fill="black" stroke="black" points="232.05,-1077.59 228.55,-1067.59 225.05,-1077.59 232.05,-1077.59"/>
</g>
<!-- (11, 1) -->
<g id="node31" class="node">
<title>(11, 1)</title>
<ellipse fill="none" stroke="black" cx="228.55" cy="-977.49" rx="34.39" ry="18"/>
<text text-anchor="middle" x="228.55" y="-973.79" font-family="Times New Roman,serif" font-size="14.00">(11, 1)</text>
</g>
<!-- (10, 1)&#45;&gt;(11, 1) -->
<g id="edge32" class="edge">
<title>(10, 1)&#45;&gt;(11, 1)</title>
<path fill="none" stroke="black" d="M228.55,-1031.19C228.55,-1023.47 228.55,-1014.2 228.55,-1005.6"/>
<polygon fill="black" stroke="black" points="232.05,-1005.59 228.55,-995.59 225.05,-1005.59 232.05,-1005.59"/>
</g>
<!-- (12, 1) -->
<g id="node32" class="node">
<title>(12, 1)</title>
<ellipse fill="none" stroke="black" cx="228.55" cy="-905.49" rx="34.39" ry="18"/>
<text text-anchor="middle" x="228.55" y="-901.79" font-family="Times New Roman,serif" font-size="14.00">(12, 1)</text>
</g>
<!-- (11, 1)&#45;&gt;(12, 1) -->
<g id="edge33" class="edge">
<title>(11, 1)&#45;&gt;(12, 1)</title>
<path fill="none" stroke="black" d="M228.55,-959.19C228.55,-951.47 228.55,-942.2 228.55,-933.6"/>
<polygon fill="black" stroke="black" points="232.05,-933.59 228.55,-923.59 225.05,-933.59 232.05,-933.59"/>
</g>
<!-- (12, 2) -->
<g id="node33" class="node">
<title>(12, 2)</title>
<ellipse fill="none" stroke="black" cx="228.55" cy="-833.49" rx="34.39" ry="18"/>
<text text-anchor="middle" x="228.55" y="-829.79" font-family="Times New Roman,serif" font-size="14.00">(12, 2)</text>
</g>
<!-- (12, 1)&#45;&gt;(12, 2) -->
<g id="edge34" class="edge">
<title>(12, 1)&#45;&gt;(12, 2)</title>
<path fill="none" stroke="black" d="M228.55,-887.19C228.55,-879.47 228.55,-870.2 228.55,-861.6"/>
<polygon fill="black" stroke="black" points="232.05,-861.59 228.55,-851.59 225.05,-861.59 232.05,-861.59"/>
</g>
<!-- (12, 3) -->
<g id="node34" class="node">
<title>(12, 3)</title>
<ellipse fill="none" stroke="black" cx="228.55" cy="-761.49" rx="34.39" ry="18"/>
<text text-anchor="middle" x="228.55" y="-757.79" font-family="Times New Roman,serif" font-size="14.00">(12, 3)</text>
</g>
<!-- (12, 2)&#45;&gt;(12, 3) -->
<g id="edge35" class="edge">
<title>(12, 2)&#45;&gt;(12, 3)</title>
<path fill="none" stroke="black" d="M228.55,-815.19C228.55,-807.47 228.55,-798.2 228.55,-789.6"/>
<polygon fill="black" stroke="black" points="232.05,-789.59 228.55,-779.59 225.05,-789.59 232.05,-789.59"/>
</g>
<!-- (13, 3) -->
<g id="node35" class="node">
<title>(13, 3)</title>
<ellipse fill="none" stroke="black" cx="228.55" cy="-689.49" rx="34.39" ry="18"/>
<text text-anchor="middle" x="228.55" y="-685.79" font-family="Times New Roman,serif" font-size="14.00">(13, 3)</text>
</g>
<!-- (12, 3)&#45;&gt;(13, 3) -->
<g id="edge36" class="edge">
<title>(12, 3)&#45;&gt;(13, 3)</title>
<path fill="none" stroke="black" d="M228.55,-743.19C228.55,-735.47 228.55,-726.2 228.55,-717.6"/>
<polygon fill="black" stroke="black" points="232.05,-717.59 228.55,-707.59 225.05,-717.59 232.05,-717.59"/>
</g>
<!-- (13, 4) -->
<g id="node36" class="node">
<title>(13, 4)</title>
<ellipse fill="none" stroke="black" cx="228.55" cy="-617.49" rx="34.39" ry="18"/>
<text text-anchor="middle" x="228.55" y="-613.79" font-family="Times New Roman,serif" font-size="14.00">(13, 4)</text>
</g>
<!-- (13, 3)&#45;&gt;(13, 4) -->
<g id="edge37" class="edge">
<title>(13, 3)&#45;&gt;(13, 4)</title>
<path fill="none" stroke="black" d="M228.55,-671.19C228.55,-663.47 228.55,-654.2 228.55,-645.6"/>
<polygon fill="black" stroke="black" points="232.05,-645.59 228.55,-635.59 225.05,-645.59 232.05,-645.59"/>
</g>
<!-- (13, 5) -->
<g id="node37" class="node">
<title>(13, 5)</title>
<ellipse fill="none" stroke="black" cx="228.55" cy="-545.49" rx="34.39" ry="18"/>
<text text-anchor="middle" x="228.55" y="-541.79" font-family="Times New Roman,serif" font-size="14.00">(13, 5)</text>
</g>
<!-- (13, 4)&#45;&gt;(13, 5) -->
<g id="edge38" class="edge">
<title>(13, 4)&#45;&gt;(13, 5)</title>
<path fill="none" stroke="black" d="M228.55,-599.19C228.55,-591.47 228.55,-582.2 228.55,-573.6"/>
<polygon fill="black" stroke="black" points="232.05,-573.59 228.55,-563.59 225.05,-573.59 232.05,-573.59"/>
</g>
<!-- (13, 6) -->
<g id="node38" class="node">
<title>(13, 6)</title>
<ellipse fill="none" stroke="black" cx="228.55" cy="-473.49" rx="34.39" ry="18"/>
<text text-anchor="middle" x="228.55" y="-469.79" font-family="Times New Roman,serif" font-size="14.00">(13, 6)</text>
</g>
<!-- (13, 5)&#45;&gt;(13, 6) -->
<g id="edge39" class="edge">
<title>(13, 5)&#45;&gt;(13, 6)</title>
<path fill="none" stroke="black" d="M228.55,-527.19C228.55,-519.47 228.55,-510.2 228.55,-501.6"/>
<polygon fill="black" stroke="black" points="232.05,-501.59 228.55,-491.59 225.05,-501.59 232.05,-501.59"/>
</g>
<!-- (13, 7) -->
<g id="node39" class="node">
<title>(13, 7)</title>
<ellipse fill="none" stroke="black" cx="228.55" cy="-401.49" rx="34.39" ry="18"/>
<text text-anchor="middle" x="228.55" y="-397.79" font-family="Times New Roman,serif" font-size="14.00">(13, 7)</text>
</g>
<!-- (13, 6)&#45;&gt;(13, 7) -->
<g id="edge40" class="edge">
<title>(13, 6)&#45;&gt;(13, 7)</title>
<path fill="none" stroke="black" d="M228.55,-455.19C228.55,-447.47 228.55,-438.2 228.55,-429.6"/>
<polygon fill="black" stroke="black" points="232.05,-429.59 228.55,-419.59 225.05,-429.59 232.05,-429.59"/>
</g>
<!-- (12, 7) -->
<g id="node40" class="node">
<title>(12, 7)</title>
<ellipse fill="none" stroke="black" cx="228.55" cy="-329.49" rx="34.39" ry="18"/>
<text text-anchor="middle" x="228.55" y="-325.79" font-family="Times New Roman,serif" font-size="14.00">(12, 7)</text>
</g>
<!-- (13, 7)&#45;&gt;(12, 7) -->
<g id="edge41" class="edge">
<title>(13, 7)&#45;&gt;(12, 7)</title>
<path fill="none" stroke="black" d="M228.55,-383.19C228.55,-375.47 228.55,-366.2 228.55,-357.6"/>
<polygon fill="black" stroke="black" points="232.05,-357.59 228.55,-347.59 225.05,-357.59 232.05,-357.59"/>
</g>
<!-- (11, 7) -->
<g id="node41" class="node">
<title>(11, 7)</title>
<ellipse fill="none" stroke="black" cx="228.55" cy="-257.49" rx="34.39" ry="18"/>
<text text-anchor="middle" x="228.55" y="-253.79" font-family="Times New Roman,serif" font-size="14.00">(11, 7)</text>
</g>
<!-- (12, 7)&#45;&gt;(11, 7) -->
<g id="edge42" class="edge">
<title>(12, 7)&#45;&gt;(11, 7)</title>
<path fill="none" stroke="black" d="M228.55,-311.19C228.55,-303.47 228.55,-294.2 228.55,-285.6"/>
<polygon fill="black" stroke="black" points="232.05,-285.59 228.55,-275.59 225.05,-285.59 232.05,-285.59"/>
</g>
<!-- (11, 6) -->
<g id="node42" class="node">
<title>(11, 6)</title>
<ellipse fill="none" stroke="black" cx="228.55" cy="-185.49" rx="34.39" ry="18"/>
<text text-anchor="middle" x="228.55" y="-181.79" font-family="Times New Roman,serif" font-size="14.00">(11, 6)</text>
</g>
<!-- (11, 7)&#45;&gt;(11, 6) -->
<g id="edge43" class="edge">
<title>(11, 7)&#45;&gt;(11, 6)</title>
<path fill="none" stroke="black" d="M228.55,-239.19C228.55,-231.47 228.55,-222.2 228.55,-213.6"/>
<polygon fill="black" stroke="black" points="232.05,-213.59 228.55,-203.59 225.05,-213.59 232.05,-213.59"/>
</g>
<!-- (11, 5) -->
<g id="node43" class="node">
<title>(11, 5)</title>
<ellipse fill="none" stroke="green" cx="228.55" cy="-65.74" rx="61.98" ry="61.98"/>
<ellipse fill="none" stroke="green" cx="228.55" cy="-65.74" rx="65.99" ry="65.99"/>
<text text-anchor="middle" x="228.55" y="-62.04" font-family="Times New Roman,serif" font-size="14.00">Salida: (11, 5)</text>
</g>
<!-- (11, 6)&#45;&gt;(11, 5) -->
<g id="edge44" class="edge">
<title>(11, 6)&#45;&gt;(11, 5)</title>
<path fill="none" stroke="black" d="M228.55,-167.37C228.55,-160.17 228.55,-151.26 228.55,-141.74"/>
<polygon fill="black" stroke="black" points="232.05,-141.65 228.55,-131.65 225.05,-141.65 232.05,-141.65"/>
</g>
</g>
</svg>
