<?xml version="1.0" encoding="UTF-8" standalone="no"?>
<!DOCTYPE svg PUBLIC "-//W3C//DTD SVG 1.1//EN"
 "http://www.w3.org/Graphics/SVG/1.1/DTD/svg11.dtd">
<!-- Generated by graphviz version 12.2.0 (20241103.1931)
 -->
<!-- Title: G Pages: 1 -->
<svg width="865pt" height="1106pt"
 viewBox="0.00 0.00 864.50 1106.00" xmlns="http://www.w3.org/2000/svg" xmlns:xlink="http://www.w3.org/1999/xlink">
<g id="graph0" class="graph" transform="scale(1 1) rotate(0) translate(4 1102)">
<title>G</title>
<polygon fill="white" stroke="none" points="-4,4 -4,-1102 860.5,-1102 860.5,4 -4,4"/>
<!-- A -->
<g id="node1" class="node">
<title>A</title>
<ellipse fill="none" stroke="black" cx="662" cy="-1080" rx="27" ry="18"/>
<text text-anchor="middle" x="662" y="-1074.95" font-family="Times New Roman,serif" font-size="14.00">A</text>
</g>
<!-- B -->
<g id="node2" class="node">
<title>B</title>
<ellipse fill="none" stroke="black" cx="405" cy="-991.5" rx="27" ry="18"/>
<text text-anchor="middle" x="405" y="-986.45" font-family="Times New Roman,serif" font-size="14.00">B</text>
</g>
<!-- A&#45;&#45;B -->
<g id="edge1" class="edge">
<title>A&#45;&#45;B</title>
<path fill="none" stroke="black" d="M638.28,-1071.02C589.32,-1054.54 477.57,-1016.93 428.66,-1000.46"/>
<text text-anchor="middle" x="571.52" y="-1030.7" font-family="Times New Roman,serif" font-size="14.00">(0, 1)</text>
</g>
<!-- E -->
<g id="node3" class="node">
<title>E</title>
<ellipse fill="none" stroke="black" cx="692" cy="-460.5" rx="27" ry="18"/>
<text text-anchor="middle" x="692" y="-455.45" font-family="Times New Roman,serif" font-size="14.00">E</text>
</g>
<!-- A&#45;&#45;E -->
<g id="edge2" class="edge">
<title>A&#45;&#45;E</title>
<path fill="none" stroke="black" d="M686.28,-1071.45C717.85,-1059.95 769,-1034.78 769,-992.5 769,-992.5 769,-992.5 769,-548 769,-513.82 735.04,-486.89 712.23,-472.66"/>
<text text-anchor="middle" x="784" y="-765.2" font-family="Times New Roman,serif" font-size="14.00">(1, 0)</text>
</g>
<!-- B&#45;&#45;A -->
<g id="edge5" class="edge">
<title>B&#45;&#45;A</title>
<path fill="none" stroke="black" d="M432.26,-993.89C469.5,-996.61 537.74,-1004.55 591,-1027.5 612.12,-1036.6 633.02,-1052.88 646.62,-1064.71"/>
<text text-anchor="middle" x="635.45" y="-1030.7" font-family="Times New Roman,serif" font-size="14.00">(0, &#45;1)</text>
</g>
<!-- C -->
<g id="node4" class="node">
<title>C</title>
<ellipse fill="none" stroke="black" cx="108" cy="-372" rx="27" ry="18"/>
<text text-anchor="middle" x="108" y="-366.95" font-family="Times New Roman,serif" font-size="14.00">C</text>
</g>
<!-- B&#45;&#45;C -->
<g id="edge3" class="edge">
<title>B&#45;&#45;C</title>
<path fill="none" stroke="black" d="M377.61,-990.68C302.85,-990.74 97.04,-987.89 39,-955.5 13.93,-941.51 0,-932.71 0,-904 0,-904 0,-904 0,-459.5 0,-416.86 51.92,-391.77 83.76,-380.38"/>
<text text-anchor="middle" x="15" y="-676.7" font-family="Times New Roman,serif" font-size="14.00">(0, 1)</text>
</g>
<!-- F -->
<g id="node5" class="node">
<title>F</title>
<ellipse fill="none" stroke="black" cx="405" cy="-903" rx="27" ry="18"/>
<text text-anchor="middle" x="405" y="-897.95" font-family="Times New Roman,serif" font-size="14.00">F</text>
</g>
<!-- B&#45;&#45;F -->
<g id="edge4" class="edge">
<title>B&#45;&#45;F</title>
<path fill="none" stroke="black" d="M409.1,-973.51C410.28,-967.82 411.41,-961.42 412,-955.5 412.72,-948.2 412.72,-946.3 412,-939 411.41,-933.08 410.28,-926.68 409.1,-920.99"/>
<text text-anchor="middle" x="427.54" y="-942.2" font-family="Times New Roman,serif" font-size="14.00">(1, 0)</text>
</g>
<!-- E&#45;&#45;A -->
<g id="edge13" class="edge">
<title>E&#45;&#45;A</title>
<path fill="none" stroke="black" d="M717.68,-466.49C755.57,-475.51 822,-498.39 822,-548 822,-992.5 822,-992.5 822,-992.5 822,-1052.34 734.33,-1070.99 688.78,-1076.64"/>
<text text-anchor="middle" x="839.25" y="-765.2" font-family="Times New Roman,serif" font-size="14.00">(&#45;1, 0)</text>
</g>
<!-- E&#45;&#45;F -->
<g id="edge11" class="edge">
<title>E&#45;&#45;F</title>
<path fill="none" stroke="black" d="M683.92,-477.96C676.28,-495.05 666,-522.75 666,-548 666,-815.5 666,-815.5 666,-815.5 666,-864.55 497.82,-890.59 431.46,-898.96"/>
<text text-anchor="middle" x="681" y="-676.7" font-family="Times New Roman,serif" font-size="14.00">(0, 1)</text>
</g>
<!-- I -->
<g id="node9" class="node">
<title>I</title>
<ellipse fill="none" stroke="black" cx="567" cy="-549" rx="27" ry="18"/>
<text text-anchor="middle" x="567" y="-543.95" font-family="Times New Roman,serif" font-size="14.00">I</text>
</g>
<!-- E&#45;&#45;I -->
<g id="edge12" class="edge">
<title>E&#45;&#45;I</title>
<path fill="none" stroke="black" d="M669.32,-470.83C655.15,-477.13 636.83,-486.18 622,-496.5 606.54,-507.26 591.07,-522.21 580.49,-533.23"/>
<text text-anchor="middle" x="637" y="-499.7" font-family="Times New Roman,serif" font-size="14.00">(1, 0)</text>
</g>
<!-- C&#45;&#45;B -->
<g id="edge8" class="edge">
<title>C&#45;&#45;B</title>
<path fill="none" stroke="black" d="M92.09,-386.89C75.85,-402.69 53,-430.14 53,-459.5 53,-904 53,-904 53,-904 53,-970.78 294.97,-986.29 377.67,-989.64"/>
<text text-anchor="middle" x="70.25" y="-676.7" font-family="Times New Roman,serif" font-size="14.00">(0, &#45;1)</text>
</g>
<!-- D -->
<g id="node6" class="node">
<title>D</title>
<ellipse fill="none" stroke="black" cx="134" cy="-283.5" rx="27" ry="18"/>
<text text-anchor="middle" x="134" y="-278.45" font-family="Times New Roman,serif" font-size="14.00">D</text>
</g>
<!-- C&#45;&#45;D -->
<g id="edge6" class="edge">
<title>C&#45;&#45;D</title>
<path fill="none" stroke="black" d="M103.11,-353.8C101.05,-343.54 99.96,-330.43 104,-319.5 106.94,-311.54 112.59,-304.18 118.2,-298.27"/>
<text text-anchor="middle" x="119" y="-322.7" font-family="Times New Roman,serif" font-size="14.00">(0, 1)</text>
</g>
<!-- G -->
<g id="node7" class="node">
<title>G</title>
<ellipse fill="none" stroke="black" cx="197" cy="-460.5" rx="27" ry="18"/>
<text text-anchor="middle" x="197" y="-455.45" font-family="Times New Roman,serif" font-size="14.00">G</text>
</g>
<!-- C&#45;&#45;G -->
<g id="edge7" class="edge">
<title>C&#45;&#45;G</title>
<path fill="none" stroke="black" d="M123.79,-386.72C130.97,-393.08 139.52,-400.81 147,-408 159.58,-420.09 173.35,-434.36 183.25,-444.81"/>
<text text-anchor="middle" x="177.43" y="-411.2" font-family="Times New Roman,serif" font-size="14.00">(1, 0)</text>
</g>
<!-- F&#45;&#45;B -->
<g id="edge17" class="edge">
<title>F&#45;&#45;B</title>
<path fill="none" stroke="black" d="M388.43,-917.63C382.54,-923.52 376.6,-930.91 373.5,-939 370.87,-945.85 370.87,-948.65 373.5,-955.5 376.6,-963.59 382.54,-970.98 388.43,-976.87"/>
<text text-anchor="middle" x="390.75" y="-942.2" font-family="Times New Roman,serif" font-size="14.00">(&#45;1, 0)</text>
</g>
<!-- F&#45;&#45;E -->
<g id="edge16" class="edge">
<title>F&#45;&#45;E</title>
<path fill="none" stroke="black" d="M432.04,-900.36C508.21,-895 719,-874.8 719,-815.5 719,-815.5 719,-815.5 719,-548 719,-522.67 708.32,-494.99 700.39,-477.93"/>
<text text-anchor="middle" x="736.25" y="-676.7" font-family="Times New Roman,serif" font-size="14.00">(0, &#45;1)</text>
</g>
<!-- F&#45;&#45;G -->
<g id="edge14" class="edge">
<title>F&#45;&#45;G</title>
<path fill="none" stroke="black" d="M377.98,-900.89C320.51,-898.11 188.28,-889.4 150,-867 125.22,-852.5 111,-844.21 111,-815.5 111,-815.5 111,-815.5 111,-548 111,-511.58 149.82,-485.05 175.3,-471.56"/>
<text text-anchor="middle" x="126" y="-676.7" font-family="Times New Roman,serif" font-size="14.00">(0, 1)</text>
</g>
<!-- J -->
<g id="node10" class="node">
<title>J</title>
<ellipse fill="none" stroke="black" cx="416" cy="-814.5" rx="27" ry="18"/>
<text text-anchor="middle" x="416" y="-809.45" font-family="Times New Roman,serif" font-size="14.00">J</text>
</g>
<!-- F&#45;&#45;J -->
<g id="edge15" class="edge">
<title>F&#45;&#45;J</title>
<path fill="none" stroke="black" d="M390.41,-887.79C381.75,-877.57 373.45,-863.38 379,-850.5 382.85,-841.57 390.22,-833.85 397.38,-827.95"/>
<text text-anchor="middle" x="394" y="-853.7" font-family="Times New Roman,serif" font-size="14.00">(1, 0)</text>
</g>
<!-- D&#45;&#45;C -->
<g id="edge10" class="edge">
<title>D&#45;&#45;C</title>
<path fill="none" stroke="black" d="M136.65,-301.63C137.59,-311.86 137.65,-324.96 134,-336 131.58,-343.33 126.96,-350.38 122.27,-356.2"/>
<text text-anchor="middle" x="154.14" y="-322.7" font-family="Times New Roman,serif" font-size="14.00">(0, &#45;1)</text>
</g>
<!-- H -->
<g id="node8" class="node">
<title>H</title>
<ellipse fill="none" stroke="black" cx="215" cy="-195" rx="27" ry="18"/>
<text text-anchor="middle" x="215" y="-189.95" font-family="Times New Roman,serif" font-size="14.00">H</text>
</g>
<!-- D&#45;&#45;H -->
<g id="edge9" class="edge">
<title>D&#45;&#45;H</title>
<path fill="none" stroke="black" d="M120.01,-267.63C111.61,-256.84 103.96,-242.22 112,-231 129.16,-207.05 163.65,-199.29 187.98,-196.89"/>
<text text-anchor="middle" x="127" y="-234.2" font-family="Times New Roman,serif" font-size="14.00">(1, 0)</text>
</g>
<!-- G&#45;&#45;C -->
<g id="edge21" class="edge">
<title>G&#45;&#45;C</title>
<path fill="none" stroke="black" d="M170.43,-456.83C149.76,-453.2 122.35,-444.66 108.5,-424.5 101.72,-414.62 101.9,-400.98 103.61,-390.21"/>
<text text-anchor="middle" x="125.75" y="-411.2" font-family="Times New Roman,serif" font-size="14.00">(&#45;1, 0)</text>
</g>
<!-- G&#45;&#45;F -->
<g id="edge20" class="edge">
<title>G&#45;&#45;F</title>
<path fill="none" stroke="black" d="M186.92,-477.39C177.21,-494.24 164,-521.96 164,-548 164,-815.5 164,-815.5 164,-815.5 164,-860.73 316.29,-888.71 378.75,-898.29"/>
<text text-anchor="middle" x="181.25" y="-676.7" font-family="Times New Roman,serif" font-size="14.00">(0, &#45;1)</text>
</g>
<!-- G&#45;&#45;H -->
<g id="edge18" class="edge">
<title>G&#45;&#45;H</title>
<path fill="none" stroke="black" d="M198.18,-442.21C201.44,-394.47 210.55,-261.17 213.81,-213.35"/>
<text text-anchor="middle" x="221.42" y="-322.7" font-family="Times New Roman,serif" font-size="14.00">(0, 1)</text>
</g>
<!-- K -->
<g id="node11" class="node">
<title>K</title>
<ellipse fill="none" stroke="black" cx="296" cy="-549" rx="27" ry="18"/>
<text text-anchor="middle" x="296" y="-543.95" font-family="Times New Roman,serif" font-size="14.00">K</text>
</g>
<!-- G&#45;&#45;K -->
<g id="edge19" class="edge">
<title>G&#45;&#45;K</title>
<path fill="none" stroke="black" d="M202.37,-478.56C206.54,-489.53 213.27,-503.47 223,-513 236.55,-526.28 256.11,-535.29 271.57,-540.83"/>
<text text-anchor="middle" x="238" y="-499.7" font-family="Times New Roman,serif" font-size="14.00">(1, 0)</text>
</g>
<!-- H&#45;&#45;D -->
<g id="edge24" class="edge">
<title>H&#45;&#45;D</title>
<path fill="none" stroke="black" d="M195.24,-207.33C185.54,-213.51 174.13,-221.78 165.5,-231 155.76,-241.41 147.48,-255.29 141.86,-266.02"/>
<text text-anchor="middle" x="182.75" y="-234.2" font-family="Times New Roman,serif" font-size="14.00">(&#45;1, 0)</text>
</g>
<!-- H&#45;&#45;G -->
<g id="edge23" class="edge">
<title>H&#45;&#45;G</title>
<path fill="none" stroke="black" d="M221.51,-212.75C230.89,-238.95 246.43,-291.28 240,-336 234.16,-376.58 228.78,-386.26 214,-424.5 211.61,-430.67 208.56,-437.25 205.71,-443.02"/>
<text text-anchor="middle" x="258.66" y="-322.7" font-family="Times New Roman,serif" font-size="14.00">(0, &#45;1)</text>
</g>
<!-- L -->
<g id="node12" class="node">
<title>L</title>
<ellipse fill="none" stroke="black" cx="299" cy="-106.5" rx="27" ry="18"/>
<text text-anchor="middle" x="299" y="-101.45" font-family="Times New Roman,serif" font-size="14.00">L</text>
</g>
<!-- H&#45;&#45;L -->
<g id="edge22" class="edge">
<title>H&#45;&#45;L</title>
<path fill="none" stroke="black" d="M213.34,-176.67C213.2,-165.86 214.78,-152.2 222,-142.5 234.18,-126.12 255.84,-117.21 273.09,-112.49"/>
<text text-anchor="middle" x="237" y="-145.7" font-family="Times New Roman,serif" font-size="14.00">(1, 0)</text>
</g>
<!-- I&#45;&#45;E -->
<g id="edge27" class="edge">
<title>I&#45;&#45;E</title>
<path fill="none" stroke="black" d="M561,-531.04C558.29,-520.11 557.12,-506.18 564.5,-496.5 576.68,-480.53 631.79,-470.04 665.44,-465"/>
<text text-anchor="middle" x="581.75" y="-499.7" font-family="Times New Roman,serif" font-size="14.00">(&#45;1, 0)</text>
</g>
<!-- I&#45;&#45;J -->
<g id="edge25" class="edge">
<title>I&#45;&#45;J</title>
<path fill="none" stroke="black" d="M563.33,-566.85C560.97,-576.99 557.68,-590.09 554,-601.5 526.66,-686.27 520.28,-712.93 460,-778.5 452.34,-786.84 442.58,-794.8 434.21,-801.02"/>
<text text-anchor="middle" x="544.54" y="-676.7" font-family="Times New Roman,serif" font-size="14.00">(0, 1)</text>
</g>
<!-- M -->
<g id="node13" class="node">
<title>M</title>
<ellipse fill="none" stroke="black" cx="479" cy="-637.5" rx="27" ry="18"/>
<text text-anchor="middle" x="479" y="-632.45" font-family="Times New Roman,serif" font-size="14.00">M</text>
</g>
<!-- I&#45;&#45;M -->
<g id="edge26" class="edge">
<title>I&#45;&#45;M</title>
<path fill="none" stroke="black" d="M540.03,-551.1C516.19,-553.68 482.68,-561.57 466,-585 458.51,-595.52 463.1,-609.93 468.8,-620.84"/>
<text text-anchor="middle" x="481" y="-588.2" font-family="Times New Roman,serif" font-size="14.00">(1, 0)</text>
</g>
<!-- J&#45;&#45;F -->
<g id="edge31" class="edge">
<title>J&#45;&#45;F</title>
<path fill="none" stroke="black" d="M413.79,-832.85C411.87,-847.99 409.09,-869.84 407.17,-884.91"/>
<text text-anchor="middle" x="428.74" y="-853.7" font-family="Times New Roman,serif" font-size="14.00">(&#45;1, 0)</text>
</g>
<!-- J&#45;&#45;I -->
<g id="edge30" class="edge">
<title>J&#45;&#45;I</title>
<path fill="none" stroke="black" d="M438.03,-803.58C473.07,-786.37 539.99,-747.25 564,-690 581.3,-648.75 575.28,-594.47 570.53,-567.2"/>
<text text-anchor="middle" x="586.81" y="-676.7" font-family="Times New Roman,serif" font-size="14.00">(0, &#45;1)</text>
</g>
<!-- J&#45;&#45;K -->
<g id="edge28" class="edge">
<title>J&#45;&#45;K</title>
<path fill="none" stroke="black" d="M388.67,-814.47C354.91,-814.21 297.49,-808.84 261,-778.5 194.59,-723.28 193.9,-656.05 243,-585 250.59,-574.02 262.84,-565.6 273.66,-559.78"/>
<text text-anchor="middle" x="223.8" y="-676.7" font-family="Times New Roman,serif" font-size="14.00">(0, 1)</text>
</g>
<!-- N -->
<g id="node14" class="node">
<title>N</title>
<ellipse fill="none" stroke="black" cx="417" cy="-726" rx="27" ry="18"/>
<text text-anchor="middle" x="417" y="-720.95" font-family="Times New Roman,serif" font-size="14.00">N</text>
</g>
<!-- J&#45;&#45;N -->
<g id="edge29" class="edge">
<title>J&#45;&#45;N</title>
<path fill="none" stroke="black" d="M402.22,-799.06C394.29,-788.97 386.69,-775.02 391,-762 393.42,-754.67 398.04,-747.62 402.73,-741.8"/>
<text text-anchor="middle" x="406" y="-765.2" font-family="Times New Roman,serif" font-size="14.00">(1, 0)</text>
</g>
<!-- K&#45;&#45;G -->
<g id="edge35" class="edge">
<title>K&#45;&#45;G</title>
<path fill="none" stroke="black" d="M285.09,-532.46C277,-521.61 265.29,-507.21 253,-496.5 242.28,-487.16 228.81,-478.66 217.76,-472.37"/>
<text text-anchor="middle" x="285.84" y="-499.7" font-family="Times New Roman,serif" font-size="14.00">(&#45;1, 0)</text>
</g>
<!-- K&#45;&#45;J -->
<g id="edge34" class="edge">
<title>K&#45;&#45;J</title>
<path fill="none" stroke="black" d="M292.1,-567.16C286.76,-594.37 279.65,-648.57 296.5,-690 317.07,-740.58 369.3,-781.95 397.41,-801.44"/>
<text text-anchor="middle" x="313.75" y="-676.7" font-family="Times New Roman,serif" font-size="14.00">(0, &#45;1)</text>
</g>
<!-- K&#45;&#45;L -->
<g id="edge32" class="edge">
<title>K&#45;&#45;L</title>
<path fill="none" stroke="black" d="M305.02,-531.64C313.53,-514.64 325,-487 325,-461.5 325,-461.5 325,-461.5 325,-194 325,-168.75 314.72,-141.05 307.08,-123.96"/>
<text text-anchor="middle" x="340" y="-322.7" font-family="Times New Roman,serif" font-size="14.00">(0, 1)</text>
</g>
<!-- O -->
<g id="node15" class="node">
<title>O</title>
<ellipse fill="none" stroke="black" cx="350" cy="-637.5" rx="27" ry="18"/>
<text text-anchor="middle" x="350" y="-632.45" font-family="Times New Roman,serif" font-size="14.00">O</text>
</g>
<!-- K&#45;&#45;O -->
<g id="edge33" class="edge">
<title>K&#45;&#45;O</title>
<path fill="none" stroke="black" d="M300.72,-567.04C304.06,-577.49 309.16,-590.85 316,-601.5 320.94,-609.2 327.77,-616.63 334,-622.65"/>
<text text-anchor="middle" x="331" y="-588.2" font-family="Times New Roman,serif" font-size="14.00">(1, 0)</text>
</g>
<!-- L&#45;&#45;H -->
<g id="edge38" class="edge">
<title>L&#45;&#45;H</title>
<path fill="none" stroke="black" d="M285.71,-122.64C276.45,-133.05 263.71,-147.08 252,-159 245.06,-166.07 237.11,-173.65 230.36,-179.94"/>
<text text-anchor="middle" x="283.79" y="-145.7" font-family="Times New Roman,serif" font-size="14.00">(&#45;1, 0)</text>
</g>
<!-- L&#45;&#45;K -->
<g id="edge37" class="edge">
<title>L&#45;&#45;K</title>
<path fill="none" stroke="black" d="M319.76,-118.52C343.16,-132.63 378,-159.43 378,-194 378,-461.5 378,-461.5 378,-461.5 378,-496.88 341.41,-523.59 317.12,-537.43"/>
<text text-anchor="middle" x="395.25" y="-322.7" font-family="Times New Roman,serif" font-size="14.00">(0, &#45;1)</text>
</g>
<!-- P -->
<g id="node16" class="node">
<title>P</title>
<ellipse fill="none" stroke="black" cx="298" cy="-18" rx="27" ry="18"/>
<text text-anchor="middle" x="298" y="-12.95" font-family="Times New Roman,serif" font-size="14.00">P</text>
</g>
<!-- L&#45;&#45;P -->
<g id="edge36" class="edge">
<title>L&#45;&#45;P</title>
<path fill="none" stroke="black" d="M284.73,-90.7C280.04,-84.88 275.42,-77.83 273,-70.5 268.69,-57.48 276.29,-43.53 284.22,-33.44"/>
<text text-anchor="middle" x="288" y="-57.2" font-family="Times New Roman,serif" font-size="14.00">(1, 0)</text>
</g>
<!-- M&#45;&#45;I -->
<g id="edge40" class="edge">
<title>M&#45;&#45;I</title>
<path fill="none" stroke="black" d="M489.7,-620.72C497.34,-610.04 508.23,-595.92 519.5,-585 528.18,-576.59 538.95,-568.49 548.04,-562.21"/>
<text text-anchor="middle" x="536.75" y="-588.2" font-family="Times New Roman,serif" font-size="14.00">(&#45;1, 0)</text>
</g>
<!-- M&#45;&#45;N -->
<g id="edge39" class="edge">
<title>M&#45;&#45;N</title>
<path fill="none" stroke="black" d="M463.49,-652.68C457.32,-658.75 450.42,-666.13 445,-673.5 436.92,-684.48 429.62,-698.08 424.51,-708.54"/>
<text text-anchor="middle" x="460" y="-676.7" font-family="Times New Roman,serif" font-size="14.00">(0, 1)</text>
</g>
<!-- N&#45;&#45;J -->
<g id="edge43" class="edge">
<title>N&#45;&#45;J</title>
<path fill="none" stroke="black" d="M419.61,-744.16C420.81,-754.17 421.81,-767.05 421,-778.5 420.58,-784.38 419.77,-790.77 418.93,-796.46"/>
<text text-anchor="middle" x="438.54" y="-765.2" font-family="Times New Roman,serif" font-size="14.00">(&#45;1, 0)</text>
</g>
<!-- N&#45;&#45;M -->
<g id="edge42" class="edge">
<title>N&#45;&#45;M</title>
<path fill="none" stroke="black" d="M440.66,-716.85C453.05,-711.29 467.22,-702.61 475,-690 481.31,-679.77 482.11,-666.14 481.44,-655.47"/>
<text text-anchor="middle" x="497.84" y="-676.7" font-family="Times New Roman,serif" font-size="14.00">(0, &#45;1)</text>
</g>
<!-- N&#45;&#45;O -->
<g id="edge41" class="edge">
<title>N&#45;&#45;O</title>
<path fill="none" stroke="black" d="M405.02,-709.54C392.83,-693.79 374.03,-669.53 361.87,-653.83"/>
<text text-anchor="middle" x="404.5" y="-676.7" font-family="Times New Roman,serif" font-size="14.00">(0, 1)</text>
</g>
<!-- O&#45;&#45;K -->
<g id="edge46" class="edge">
<title>O&#45;&#45;K</title>
<path fill="none" stroke="black" d="M352.22,-619.19C352.75,-608.65 351.87,-595.28 346,-585 339.7,-573.96 328.32,-565.58 318,-559.79"/>
<text text-anchor="middle" x="368.56" y="-588.2" font-family="Times New Roman,serif" font-size="14.00">(&#45;1, 0)</text>
</g>
<!-- O&#45;&#45;N -->
<g id="edge45" class="edge">
<title>O&#45;&#45;N</title>
<path fill="none" stroke="black" d="M340.54,-654.48C335.5,-665.26 331.62,-679.4 338.5,-690 349.95,-707.65 372.6,-716.47 390.64,-720.84"/>
<text text-anchor="middle" x="355.75" y="-676.7" font-family="Times New Roman,serif" font-size="14.00">(0, &#45;1)</text>
</g>
<!-- O&#45;&#45;P -->
<g id="edge44" class="edge">
<title>O&#45;&#45;P</title>
<path fill="none" stroke="black" d="M332.45,-623.55C314.08,-609.87 284.57,-587.47 260,-567 139.82,-466.85 50,-440.95 50,-284.5 50,-284.5 50,-284.5 50,-105.5 50,-58.99 207.48,-31.68 271.46,-22.5"/>
<text text-anchor="middle" x="68.63" y="-322.7" font-family="Times New Roman,serif" font-size="14.00">(0, 1)</text>
</g>
<!-- P&#45;&#45;L -->
<g id="edge48" class="edge">
<title>P&#45;&#45;L</title>
<path fill="none" stroke="black" d="M300.93,-36.04C301.77,-41.73 302.58,-48.12 303,-54 303.81,-65.45 302.81,-78.33 301.61,-88.34"/>
<text text-anchor="middle" x="320.54" y="-57.2" font-family="Times New Roman,serif" font-size="14.00">(&#45;1, 0)</text>
</g>
<!-- P&#45;&#45;O -->
<g id="edge47" class="edge">
<title>P&#45;&#45;O</title>
<path fill="none" stroke="black" d="M324.28,-23.27C364.32,-31.43 436,-53.33 436,-105.5 436,-284.5 436,-284.5 436,-284.5 436,-426.86 458.01,-476.43 390,-601.5 385.06,-610.58 376.79,-618.41 369.04,-624.35"/>
<text text-anchor="middle" x="454.11" y="-322.7" font-family="Times New Roman,serif" font-size="14.00">(0, &#45;1)</text>
</g>
</g>
</svg>
